# xmcd CD database file
#
# Track frame offsets:
#	182
#	13522
#	26515
#	41962
#	56795
#	70445
#	84460
#	100440
#	115667
#	130687
#	145347
#	159730
#	173487
#	186955
#	199162
#	214087
#	227795
#	241202
#	254540
#	267215
#	279597
#	294010
#	306220
#	319277
#
# Disc length: 4425 seconds
#
# Revision: 0
# Processed by: cddbd v1.5.2PL0 Copyright (c) Steve Scherf et al.
# Submitted via: CDex 1.70beta2
#
DISCID=63114718
DTITLE=Various Artist - New York Horns
DYEAR=1990
DGENRE=Jazz
TTITLE0=Lenox Avenue Shuffle
TTITLE1=Down in the Mouth Blues
TTITLE2=Get Yourself a Monkey Man and Make Him Strut His Stuff
TTITLE3=Louisville Blues
TTITLE4=Lenox Avenue Shuffle
TTITLE5=Down in the Mouth Blues
TTITLE6=Believe Me Hot Mama
TTITLE7=St. Louis Blues
TTITLE8=Louisville Blues
TTITLE9=Temp'ramental Papa
TTITLE10=Those Panama Mamas (Are Ruining Me)
TTITLE11=Dark Gal Blues
TTITLE12=Get It Fixed
TTITLE13=Keep Your Temper
TTITLE14=Santa Claus Blues
TTITLE15=Hold 'Er, Deacon
TTITLE16=Santa Claus Blues
TTITLE17=Keep Your Temper
TTITLE18=Hot Coffee
TTITLE19=18th Street Strut
TTITLE20=Black Horse Stomp
TTITLE21=Oh! Melinda
TTITLE22=Lindbergh Hop
TTITLE23=Daylight Savin' Blues
EXTD=YEAR: 1990
EXTT0=
EXTT1=
EXTT2=
EXTT3=
EXTT4=
EXTT5=
EXTT6=
EXTT7=
EXTT8=
EXTT9=
EXTT10=
EXTT11=
EXTT12=
EXTT13=
EXTT14=
EXTT15=
EXTT16=
EXTT17=
EXTT18=
EXTT19=
EXTT20=
EXTT21=
EXTT22=
EXTT23=
PLAYORDER=
